<?xml version="1.0" encoding="UTF-8"?>
<svg id="Layer_1" xmlns="http://www.w3.org/2000/svg" viewBox="0 0 26.74 17.47">
  <defs>
    <style>
      .cls-1 {
        fill: #231f20;
      }
    </style>
  </defs>
  <path class="cls-1" d="M6.6,17.47c-1.44,0-2.65-.27-3.62-.8-.98-.54-1.72-1.27-2.22-2.2s-.76-1.98-.76-3.14v-.72h2.02v.58c0,1.46.41,2.56,1.22,3.3.82.74,1.94,1.12,3.36,1.12,1.25,0,2.19-.28,2.82-.84.63-.56.95-1.29.95-2.18v-.14c0-.88-.32-1.55-.97-2.02-.65-.46-1.7-.8-3.16-1.01-1.68-.24-3.02-.72-4.02-1.43s-1.5-1.79-1.5-3.23v-.29c0-.88.24-1.65.71-2.32s1.12-1.19,1.96-1.57c.83-.38,1.79-.58,2.88-.58,1.26,0,2.34.23,3.23.7.89.46,1.57,1.08,2.04,1.84.47.76.71,1.6.71,2.51v1.01h-2.02v-.86c0-.74-.18-1.35-.55-1.84-.37-.49-.86-.86-1.46-1.1-.61-.25-1.26-.37-1.97-.37-.61,0-1.18.1-1.72.31-.54.21-.97.51-1.3.9-.33.39-.49.88-.49,1.45v.14c0,.93.38,1.6,1.13,2.03s1.88.75,3.38.97c1.76.26,3.06.77,3.89,1.54.83.77,1.25,1.79,1.25,3.07v.29c0,1.46-.49,2.64-1.48,3.54-.98.9-2.42,1.36-4.31,1.36Z"/>
  <path class="cls-1" d="M14.98,17.14v-1.87h1.44V2.21h-1.44V.34h6.79c1.62,0,2.85.42,3.7,1.25.85.83,1.27,1.87,1.27,3.12v.29c0,.91-.27,1.68-.82,2.3s-1.22,1.05-2.02,1.27v.29c.8.21,1.47.64,2.02,1.28.54.65.82,1.42.82,2.32v.29c0,1.26-.42,2.31-1.27,3.14-.85.83-2.08,1.25-3.7,1.25h-6.79ZM18.43,7.78h3.26c.96,0,1.72-.25,2.28-.74.56-.5.84-1.18.84-2.04v-.14c0-.82-.3-1.46-.89-1.93-.59-.47-1.36-.71-2.3-.71h-3.19v5.57ZM18.43,15.26h3.19c.94,0,1.71-.24,2.3-.71.59-.47.89-1.12.89-1.96v-.14c0-.85-.28-1.53-.84-2.04-.56-.51-1.32-.77-2.28-.77h-3.26v5.62Z"/>
</svg>